<?xml version="1.0" encoding="utf-8"?>
<!-- Generator: Adobe Illustrator 25.2.1, SVG Export Plug-In . SVG Version: 6.00 Build 0)  -->
<svg version="1.1" id="Layer_1" xmlns="http://www.w3.org/2000/svg" xmlns:xlink="http://www.w3.org/1999/xlink" x="0px"
     y="0px"
     viewBox="0 0 2480 2480" style="enable-background:new 0 0 2480 2480;" xml:space="preserve">
<style type="text/css">
	.st0{display:none;fill:#FFFFFF;stroke:#000000;stroke-miterlimit:10;}
	.st1{fill:#7B75B6;}
	.st2{display:none;fill:#7B75B6;}
	.st3{fill:#FFCC24;}
</style>
	<path class="st0" d="M805.18,1166.19l-1.82,20.22c0,0-7.89,26.7,34.18,19.21c42.07-7.48,95.87-21.44,95.87-21.44l31.35-8.29
	c0,0,21.44-4.45,26.7,1.21c5.26,5.66,8.7,17.39,5.66,31.96c-3.03,14.56-8.29,47.73-8.29,47.73l-30.61,144.74
	c0,0-5.6,23.53,3.51,29.8s18,7.08,33.57,2.22c15.57-4.85,76.04-24.88,76.04-24.88s13.55-5.26,19.21,4.25
	c5.66,9.51,6.81,16.65,6.54,25.01c-0.27,8.36-67.82,326.7-67.82,326.7s-4.45,23.06,9.3,26.7c13.75,3.64,21.44,3.24,31.15-18.2
	c9.71-21.44,436.31-861.98,436.31-863.06c0-1.08,4.72-17.8,0-24.81s-12.94-9.44-23.87-7.96c-10.92,1.48-146.97,26.97-146.97,26.97
	s-20.36,4.65-22.79-9.71c-2.43-14.36,3.64-35.19,3.64-35.19l91.69-313.48c0,0,2.56-22.38-2.29-28.85
	c-4.85-6.47-8.42-10.11-31.78-4.85c-23.36,5.26-501.88,97.35-501.88,97.35s-24.54,0.13-29.8,11.6s-6.47,11.06-6.61,25.89
	C835.25,661.85,805.18,1166.19,805.18,1166.19z"/>
	<g>
	<path class="st1" d="M705.95,2310.12c-10.23-7.23-22.95-7.01-34.24-11.29c-88.09-33.34-134.69-101.72-158.47-187.72
		c-24.16-87.39-23.5-176.36-13.48-265.99c6.96-62.29,18.35-123.61,33.17-184.3c4.06-16.62-2.63-19.19-15.18-22.78
		c-74.31-21.25-146.61-47.87-216.12-81.69c-64.53-31.39-125.24-68.84-176.9-118.67c-54.6-52.67-93.17-114.74-94.67-192.98
		c-1.27-66.3,25.32-123.07,68.57-172.41c77.01-87.85,177.71-139.64,284.03-182.65c45.3-18.32,91.45-34.27,138.69-46.94
		c12.39-3.32,15.16-8.3,11.83-21.75c-25.79-104.42-43.36-210.12-39.39-318.09c2.67-72.58,13.07-144.22,50.26-208.41
		c45.19-78,110.77-122.07,205.09-123.7c107.3-1.85,197.01,42.14,283.61,96.86c70.28,44.41,133.9,97.35,193.68,154.76
		c10.35,9.94,15.68,9.86,26.09,0c85.57-81.06,177.45-153.68,284.19-206.08c70.74-34.73,145.26-53.06,224.02-44.21
		c76.27,8.57,132.01,51.21,170.55,115.64c31.78,53.12,44.82,112.14,50.78,173.21c11.89,121.83-7.77,240.48-36.01,358.17
		c-4.04,16.84,1.37,20.36,15.39,24.5c118.94,35.12,233.75,79.48,335.28,152.41c59.94,43.06,110.82,94.26,137.04,164.47
		c34.65,92.76,9.53,174.9-52.42,247.41c-76.35,89.35-178.24,140.9-285.19,184.12c-45.3,18.31-91.45,34.25-138.66,46.94
		c-12.64,3.4-14.91,8.6-11.66,21.81c25.68,104.45,43.55,210.17,39.25,318.11c-3.04,76.37-14.74,151.21-56.16,218.3
		c-34.21,55.4-81.68,92.85-145.66,108.67c-3.67,0.91-7.84,0.41-10.21,4.28c-34.8,0-69.59,0-104.39,0c-1.55-1.07-2.99-2.81-4.68-3.11
		c-68.13-11.9-129.63-40.14-188.55-74.94c-81.7-48.26-154.37-108.02-222.9-172.92c-10.44-9.89-15.88-10.02-26.08,0.01
		c-29.69,29.18-61.13,56.54-93.76,82.5c-63.38,50.43-129.8,95.98-204.14,129.6c-38.13,17.24-78.31,27.43-118.21,38.86
		C775.54,2310.12,740.75,2310.12,705.95,2310.12z M1245.91,1626.68c52.61,2.36,112.97-2.82,173.42-3.89
		c27.46-0.49,46.23-9.47,62.12-34.42c68.48-107.57,133.42-216.99,189.96-331.27c5.66-11.43,6.09-21.13,0.04-32.48
		c-22.28-41.79-42.97-84.43-65.95-125.83c-42.56-76.67-88.4-151.42-137.51-224.17c-5.53-8.19-11.46-12.19-21.75-12.69
		c-32.05-1.56-64.02-5.92-96.06-6.3c-105.48-1.25-211.02-3.46-316.33,6.23c-10.84,1-17.34,4.58-23.31,13.45
		c-75.64,112.2-143.31,228.93-203.38,350.05c-5.35,10.78-5.42,19.93-0.07,30.74c60.02,121.15,127.84,237.79,203.39,350.05
		c5.94,8.83,12.32,12.64,23.22,13.59C1101.7,1625.64,1169.78,1627.48,1245.91,1626.68z M758.24,2206.98
		c39.32,1.35,76.81-9.68,113.01-25.16c108.61-46.44,198.68-118.98,283.29-199.23c9.21-8.74,8.75-14.49,0.26-23.51
		c-62.43-66.29-119.81-136.87-171.84-211.34c-15.97-22.86-34.25-30.61-59.62-32.81c-87.6-7.59-174.29-21.52-260.05-40.63
		c-17.95-4-26.52-1.42-30.52,18.05c-15.02,73.06-28.62,146.06-32.78,220.88c-3.84,69.08,0.77,136.54,25.65,201.28
		C648.01,2172.72,692.91,2210.11,758.24,2206.98z M754.53,274.35c-61.91-3.43-107,36.5-130.12,95.27
		c-19.25,48.95-25.3,100.29-25.87,151.91c-1,90.93,14.87,180.03,34.35,268.62c4.18,19.01,12.74,21.04,29.42,17.29
		C748.7,788,836.09,774.42,924.3,766.55c24.59-2.19,42.54-9.74,58.06-31.96c51.27-73.44,107.69-143.17,169.24-208.5
		c11.5-12.21,12.03-18.87-0.36-30.61c-70.53-66.86-145.93-127.32-231.98-173.35C869.26,295.38,816.95,274.07,754.53,274.35z
		 M2342.06,1238c1.26-18.68-4.21-38.08-13.81-56.64c-24.62-47.62-64.09-81.19-107.5-110.49c-90.42-61.04-191.58-98.17-295.4-129.35
		c-14.42-4.33-14.78,4.98-17.39,13.21c-29.77,93.92-66.43,185.19-107.37,274.8c-3.45,7.54-4.08,13.75-0.45,21.62
		c41.48,90.08,78.36,181.96,107.75,276.67c4.06,13.09,9.18,14.71,22.01,10.9c59.23-17.58,117.48-37.86,173.65-63.36
		c69.36-31.49,135.74-68.19,188.43-124.53C2320.95,1319.86,2343.81,1285.39,2342.06,1238z M559.25,939.91
		c-2.27,0.83-4.63,1.87-7.09,2.57c-87.98,25.29-173.36,57-252.84,102.8c-53.79,31-104.16,66.36-138.86,119.21
		c-28.54,43.47-33.06,89.27-9.24,136.29c23.59,46.56,62.24,79.32,104.48,108.05c91.3,62.1,193.47,100.03,298.62,131.31
		c13.3,3.96,13.95-4.53,16.37-12.17c29.92-94.54,66.55-186.5,108.01-276.58c3.58-7.77,3.34-14.02-0.18-21.64
		c-11.8-25.54-23.33-51.21-34.16-77.17c-27.32-65.48-52.66-131.69-73.83-199.43C568.79,947.56,568.57,939.88,559.25,939.91z
		 M1719.75,274.56c-39.01-1.25-76.48,10-112.7,25.49c-108.1,46.23-197.48,118.84-282.02,198.29c-10.08,9.47-9.01,15.47-0.07,24.97
		c62.45,66.4,119.81,137.1,171.93,211.64c15.61,22.32,33.92,29.52,58.35,31.58c89.02,7.51,176.96,22.25,264.2,41
		c16.32,3.51,22.74-0.6,26.18-16.51c22.4-103.73,41.62-207.68,32.09-314.63c-3.59-40.32-10.81-79.83-27.56-116.84
		C1825.24,304.56,1784.5,272.11,1719.75,274.56z M1715.74,2207.29c14.58-0.98,26.71-0.1,38.91-2.65
		c53.91-11.29,83.34-48.17,100.73-96.23c22.93-63.39,26.85-128.94,23.38-196.08c-3.9-75.61-17.98-149.22-33.44-222.91
		c-3.36-16.03-10.18-18.72-25.15-15.55c-87.9,18.64-176.48,33.05-266,41.88c-17.05,1.68-34.89-0.04-48.71,19.49
		c-55.48,78.43-115.32,153.68-181.33,223.79c-9.85,10.47-7.26,16.29,1.75,24.93c71.15,68.21,147.78,129.31,235.05,176.03
		C1609.83,2186.16,1661.07,2206.75,1715.74,2207.29z M1238.58,751.47c40.57,0,81.13,0.05,121.7-0.07c4.28-0.01,9.74,2.05,12.55-2.2
		c3.26-4.92-2.15-8.1-4.6-11.39c-37.12-49.83-78.03-96.57-118.84-143.39c-7.32-8.39-12.52-8.24-19.81,0.09
		c-40.08,45.78-79.85,91.79-116.71,140.19c-3.14,4.12-10.23,8.34-6.52,14.52c2.82,4.71,9.48,2.13,14.4,2.15
		C1160.03,751.5,1199.31,751.44,1238.58,751.47z M1241.48,1730.16c-39.92,0-79.83-0.1-119.75,0.12c-5.39,0.03-12.62-3.18-15.79,2.93
		c-2.69,5.18,3.5,9.12,6.36,12.9c37.16,48.97,77.47,95.36,117.91,141.66c8.15,9.33,13.31,6.07,19.79-1.38
		c39.91-45.9,79.94-91.69,116.65-140.2c2.87-3.79,9.04-7.72,6.45-12.9c-3.11-6.21-10.36-2.97-15.73-3
		C1318.74,1730.05,1280.11,1730.16,1241.48,1730.16z M743.7,1114.48c3.71-5.31,5.7-7.65,7.13-10.29
		c39.13-71.98,79.4-143.3,123.6-212.37c2.29-3.58,6.83-7.9,3.43-11.95c-3.5-4.17-9.81-2.31-14.65-1.64
		c-60.38,8.33-120.51,18.07-180.09,31c-11.58,2.51-14.05,8.53-10.1,19.49c9.3,25.83,17.03,52.23,26.76,77.89
		C713.1,1041.78,725.16,1077.52,743.7,1114.48z M1735.43,1115.53c27.7-61.97,48.45-122.06,69.21-182.19
		c6.09-17.63,2.06-24.93-16.59-25.64c-7.56-0.29-14.97-3.3-22.54-4.6c-48.57-8.35-97.15-16.71-145.79-24.65
		c-6.06-0.99-14.6-3.67-18.31,1.38c-4.28,5.84,3.13,11.37,6.29,16.59c12.22,20.23,25.13,40.07,36.96,60.53
		C1674.35,1008.27,1703.6,1059.85,1735.43,1115.53z M1735.84,1370.09c-6.43,1.68-7.19,6.63-9.21,10.33
		c-37.6,69.01-76.67,137.17-118.35,203.84c-3.28,5.25-10.58,10.85-7.25,16.54c4,6.81,13.01,2.98,19.48,2.05
		c57.04-8.19,113.82-17.82,170.31-29.29c15.16-3.08,20.18-7.1,14.49-22.41c-14.22-38.24-27.07-76.97-41.2-115.24
		C1755.85,1413.5,1748.82,1390.4,1735.84,1370.09z M743.64,1365.67c-28.96,65.49-51.77,128.37-72.05,192.2
		c-3.08,9.68,3.73,12.66,10.99,14.24c60.2,13.08,120.96,23.05,182.02,31.21c4.46,0.6,11.02,3.3,13.77-2.75
		c2.01-4.42-2.41-8.22-4.65-11.94c-17.9-29.57-36.41-58.79-53.77-88.67C794.92,1456.92,770.71,1413.41,743.64,1365.67z"/>
		<path class="st2" d="M1240.27,1027.42c119.72,0.14,215.86,95.94,215.37,214.6c-0.49,118.27-97.23,212.47-217.86,212.15
		c-118.44-0.31-214.53-96.06-214.42-213.66C1023.47,1122.13,1120.01,1027.28,1240.27,1027.42z"/>
</g>
	<g>
	<path class="st3" d="M1484.84,824.96c-15.84,49.49-32.33,98.78-47.21,148.55c-6.86,22.95,8.14,34.95,32.46,30.51
		c58.05-10.62,116.3-20.13,174.54-29.71c10.11-1.66,19.97,1.81,26.55,9.4c8.45,9.76,3.79,20.08-1.46,30.07
		c-61.55,117.1-122.93,234.3-184.49,351.4c-88.72,168.77-177.57,337.47-266.34,506.21c-27.11,51.54-53.79,103.31-81.46,154.55
		c-9.35,17.32-19.71,42.33-43.5,33.07c-22.65-8.82-10.99-32.56-6.93-50.72c27.57-123.27,55.28-246.5,82.49-369.85
		c7.33-33.23-6.09-45.11-39.47-35.92c-29.34,8.07-58.46,16.93-87.76,25.13c-38.27,10.72-48.64-9.08-39.97-38.04
		c15.59-52.05,23.72-105.38,35.93-157.95c5.75-24.76,12.93-49.43,18.03-74.39c6.68-32.71-5.84-44.12-38.3-37.29
		c-47.43,9.98-95.28,18.36-142.19,30.38c-59.29,15.19-58.57-11.3-53.96-52.66c7.72-69.26,14.39-138.55,18.61-208.12
		c3.24-53.37,7.85-106.66,11.99-159.98c2.47-31.85,5.22-63.68,7.84-95.51c2.89-40.45,6.09-80.88,8.51-121.36
		c0.79-13.2,2.3-26.14,4.3-39.22c2.7-17.67,11.56-24.97,28.86-27.99c150.87-26.37,301.63-53.41,452.42-80.26
		c54.86-9.77,109.72-19.57,164.58-29.37c40.69-7.27,53.07,4.95,40.08,43.03c-25.21,73.87-42.53,150.18-70.77,223.1
		C1485.5,809.04,1485.89,817.28,1484.84,824.96z"/>
</g>
</svg>
